<svg width="16" height="22" viewBox="0 0 16 22" fill="none" xmlns="http://www.w3.org/2000/svg">
<path d="M8.83434 21.1894L14.8343 17.1863C15.0398 17.0497 15.2082 16.8643 15.3243 16.6467C15.4405 16.4291 15.5008 16.1861 15.5 15.9394L15.5 1.34251C15.5014 1.20742 15.4653 1.0746 15.3958 0.958758C15.3263 0.842919 15.2261 0.748598 15.1062 0.686256C14.9875 0.621093 14.8533 0.5893 14.718 0.594252C14.5826 0.599203 14.4511 0.640716 14.3375 0.714381L7.99996 4.94251L1.66246 0.71438C1.5488 0.640715 1.41732 0.599203 1.28197 0.594251C1.14661 0.589299 1.01245 0.621092 0.893711 0.686256C0.773867 0.748597 0.673635 0.842919 0.604132 0.958757C0.534628 1.0746 0.498571 1.20742 0.499962 1.34251L0.499961 15.9394C0.499073 16.1861 0.559422 16.4291 0.675594 16.6467C0.791765 16.8643 0.960128 17.0497 1.16559 17.1863L7.16559 21.1894C7.41247 21.3546 7.70287 21.4429 7.99996 21.4429C8.29705 21.4429 8.58745 21.3546 8.83434 21.1894ZM1.99996 15.9394L1.99996 2.74876L7.16559 6.18938C7.41247 6.35464 7.70287 6.44286 7.99996 6.44286C8.29705 6.44286 8.58745 6.35464 8.83434 6.18938L14 2.74876L14 15.9394L7.99996 19.9425L1.99996 15.9394Z" fill="#BDBDBD"/>
</svg>
