<svg width="21" height="28" viewBox="0 0 21 28" fill="none" xmlns="http://www.w3.org/2000/svg">
<path d="M19.2503 0.875C19.6075 0.875047 19.9523 1.00619 20.2192 1.24354C20.4861 1.4809 20.6567 1.80797 20.6985 2.16271L20.7087 2.33333V25.6667C20.7082 26.0384 20.5659 26.3959 20.3108 26.6662C20.0556 26.9364 19.7069 27.0991 19.3358 27.1209C18.9647 27.1427 18.5994 27.0219 18.3143 26.7834C18.0293 26.5448 17.8461 26.2064 17.8022 25.8373L17.792 25.6667V18.375H16.3337C15.9765 18.375 15.6317 18.2438 15.3648 18.0065C15.0979 17.7691 14.9273 17.442 14.8855 17.0873L14.8753 16.9167V8.16667C14.8753 4.94375 17.0628 0.875 19.2503 0.875ZM10.5003 0.875C10.8575 0.875047 11.2023 1.00619 11.4692 1.24354C11.7361 1.4809 11.9067 1.80797 11.9485 2.16271L11.9587 2.33333V9.625C11.9585 10.9184 11.5287 12.175 10.7368 13.1976C9.94494 14.2202 8.83582 14.9508 7.58366 15.2746V25.6667C7.58325 26.0384 7.44092 26.3959 7.18575 26.6662C6.93059 26.9364 6.58185 27.0991 6.21079 27.1209C5.83973 27.1427 5.47436 27.0219 5.18932 26.7834C4.90428 26.5448 4.7211 26.2064 4.6772 25.8373L4.66699 25.6667V15.2746C3.46453 14.9637 2.39259 14.2774 1.60707 13.3153C0.821544 12.3533 0.363407 11.1658 0.299284 9.92542L0.291992 9.625V2.33333C0.292404 1.96163 0.434732 1.60412 0.689896 1.33384C0.945059 1.06356 1.2938 0.900907 1.66486 0.879124C2.03592 0.857341 2.4013 0.978067 2.68633 1.21664C2.97137 1.45521 3.15455 1.79361 3.19845 2.16271L3.20866 2.33333V9.625C3.20867 10.137 3.34345 10.6399 3.59944 11.0833C3.85543 11.5267 4.22361 11.8948 4.66699 12.1508V2.33333C4.6674 1.96163 4.80973 1.60412 5.0649 1.33384C5.32006 1.06356 5.6688 0.900907 6.03986 0.879124C6.41092 0.857341 6.77629 0.978067 7.06133 1.21664C7.34637 1.45521 7.52955 1.79361 7.57345 2.16271L7.58366 2.33333L7.58512 12.1508C7.99208 11.9156 8.33616 11.5855 8.58805 11.1886C8.83994 10.7917 8.99217 10.3398 9.03178 9.87146L9.04199 9.625V2.33333C9.04199 1.94656 9.19564 1.57563 9.46913 1.30214C9.74262 1.02865 10.1136 0.875 10.5003 0.875Z" fill="#FBA06E"/>
</svg>
