<svg xmlns="http://www.w3.org/2000/svg" width="120" height="154.276" viewBox="0 0 120 154.276">
  <path id="logo" d="M111.719.875a8.572,8.572,0,0,1,8.512,7.569l.06,1V146.589a8.572,8.572,0,0,1-17.083,1l-.06-1V103.732H94.577a8.57,8.57,0,0,1-8.511-7.569l-.061-1V43.732C86,24.789,98.862.875,111.719.875Zm-51.429,0A8.572,8.572,0,0,1,68.8,8.444l.06,1V52.3A34.3,34.3,0,0,1,43.148,85.509v61.08a8.571,8.571,0,0,1-17.083,1l-.06-1V85.509A34.3,34.3,0,0,1,.334,54.069L.291,52.3V9.446a8.571,8.571,0,0,1,17.083-1l.06,1V52.3a17.142,17.142,0,0,0,8.571,14.846V9.446a8.571,8.571,0,0,1,17.083-1l.06,1,.009,57.7a17.142,17.142,0,0,0,8.5-13.4l.06-1.449V9.446A8.571,8.571,0,0,1,60.291.875Z" transform="translate(-0.291 -0.875)" fill="#fba06e"/>
</svg>
